<?xml version="1.0" standalone="no"?>
<!DOCTYPE svg PUBLIC "-//W3C//DTD SVG 20010904//EN"
 "http://www.w3.org/TR/2001/REC-SVG-20010904/DTD/svg10.dtd">
<svg version="1.0" xmlns="http://www.w3.org/2000/svg"
 width="1080.000000pt" height="1080.000000pt" viewBox="0 0 1080.000000 1080.000000"
 preserveAspectRatio="xMidYMid meet">
<metadata>
Created by potrace 1.11, written by Peter Selinger 2001-2013
</metadata>
<g transform="translate(0.000000,1080.000000) scale(0.100000,-0.100000)"
fill="#000000" stroke="none">
<path d="M2984 8131 c-51 -23 -108 -90 -123 -144 -15 -58 -651 -4580 -651
-4631 0 -68 28 -176 64 -251 103 -216 310 -372 586 -441 72 -18 164 -19 2550
-19 l2475 0 99 28 c256 71 446 218 547 422 40 82 69 188 69 261 0 41 -654
4599 -666 4639 -13 43 -60 98 -109 126 l-50 29 -2375 0 c-2286 0 -2377 -1
-2416 -19z m3045 -367 c63 -53 63 -146 0 -199 l-31 -25 -694 0 c-763 0 -737
-2 -769 60 -19 37 -19 93 0 130 32 61 4 59 767 60 l696 0 31 -26z m-1632 -293
c32 -27 80 -72 108 -100 l49 -51 760 0 761 0 98 98 97 97 474 3 474 3 30 -26
c17 -14 33 -34 36 -43 18 -60 506 -2971 506 -3019 0 -75 -48 -177 -112 -240
-91 -88 -237 -153 -393 -173 -54 -7 -679 -10 -1930 -8 -1758 3 -1853 4 -1915
22 -171 48 -323 153 -374 259 -58 119 -73 -5 204 1656 157 940 256 1511 265
1524 32 45 41 46 432 47 l372 0 58 -49z"/>
<path d="M6110 6785 c0 -108 -1 -115 -20 -115 -19 0 -20 7 -20 110 l0 110
-110 0 -110 0 0 -55 0 -55 46 0 45 0 -3 -42 c-3 -43 -3 -43 -45 -46 l-43 -3 0
-55 0 -54 35 0 c19 0 35 -2 35 -5 0 -20 -33 -79 -56 -100 -27 -25 -27 -26 -15
-80 7 -30 17 -55 22 -55 5 0 26 9 47 19 62 32 101 85 128 177 13 42 19 52 22
37 2 -15 10 -23 23 -23 18 0 19 -8 19 -115 l0 -115 65 0 65 0 0 290 0 290 -65
0 -65 0 0 -115z"/>
<path d="M6270 6610 l0 -290 65 0 65 0 0 290 0 290 -65 0 -65 0 0 -290z"/>
<path d="M6770 6610 l0 -290 65 0 65 0 0 115 c0 96 3 115 15 115 12 0 15 -19
15 -115 l0 -115 65 0 65 0 0 290 0 290 -65 0 -65 0 0 -115 c0 -96 -3 -115 -15
-115 -12 0 -15 19 -15 115 l0 115 -65 0 -65 0 0 -290z"/>
<path d="M6490 6620 l0 -270 125 0 125 0 0 55 0 55 -50 0 -50 0 0 160 0 160
40 0 40 0 0 55 0 55 -115 0 -115 0 0 -270z"/>
</g>
</svg>
