<svg xmlns="http://www.w3.org/2000/svg" viewBox="0 0 806.66 694.68"><defs><style>.cls-1{fill:#1ed760;stroke:#1ed760;stroke-width:48px;}.cls-1,.cls-2{stroke-linecap:round;stroke-linejoin:round;}.cls-2,.cls-4{fill:#fff;}.cls-2{stroke:#fff;stroke-width:22px;}.cls-3{font-size:98.78px;fill:#0087ff;font-family:BlackHanSans-Regular, Black Han Sans;}</style></defs><title>vector</title><g id="Layer_2" data-name="Layer 2"><g id="Layer_1-2" data-name="Layer 1"><path class="cls-1" d="M106,24,24,606c0,35.57,37.93,64.67,84.3,64.67H698.37c46.55,0,84.29-28.95,84.29-64.67l-84-582Z"/><path class="cls-2" d="M695.15,468c0,23.24-29,42.08-64.73,42.08H177.23c-35.6,0-64.73-18.94-64.73-42.08l63-378.75h86.15L285.55,112c0,1.9,10.65,3.45,23.66,3.45H474.86c13.08,0,23.67-1.54,23.67-3.45l22.6-22.74H630.66Z"/><text class="cls-3" transform="translate(454.16 229.41)">케대</text><rect class="cls-4" x="289.95" y="40.36" width="198.97" height="31.98" rx="15.99" ry="15.99"/></g></g></svg>